<mxfile host="app.diagrams.net" modified="2024-03-11T10:08:41.490Z" agent="Mozilla/5.0 (Windows NT 10.0; Win64; x64) AppleWebKit/537.36 (KHTML, like Gecko) Chrome/121.0.0.0 Safari/537.36" etag="5FPE0niCJ2-BMrsiHYLU" version="23.1.3" type="device">
  <diagram id="C5RBs43oDa-KdzZeNtuy" name="Page-1">
    <mxGraphModel dx="2261" dy="738" grid="1" gridSize="10" guides="1" tooltips="1" connect="1" arrows="1" fold="1" page="1" pageScale="1" pageWidth="827" pageHeight="1169" math="0" shadow="0">
      <root>
        <mxCell id="WIyWlLk6GJQsqaUBKTNV-0" />
        <mxCell id="WIyWlLk6GJQsqaUBKTNV-1" parent="WIyWlLk6GJQsqaUBKTNV-0" />
        <mxCell id="_9UMwctYBuRy0yYtkL8m-0" value="Calculator" style="swimlane;fontStyle=2;align=center;verticalAlign=top;childLayout=stackLayout;horizontal=1;startSize=26;horizontalStack=0;resizeParent=1;resizeLast=0;collapsible=1;marginBottom=0;rounded=0;shadow=0;strokeWidth=1;" vertex="1" parent="WIyWlLk6GJQsqaUBKTNV-1">
          <mxGeometry x="-270" y="100" width="290" height="242" as="geometry">
            <mxRectangle x="230" y="140" width="160" height="26" as="alternateBounds" />
          </mxGeometry>
        </mxCell>
        <mxCell id="_9UMwctYBuRy0yYtkL8m-1" value="+ DefineVar(): void" style="text;align=left;verticalAlign=top;spacingLeft=4;spacingRight=4;overflow=hidden;rotatable=0;points=[[0,0.5],[1,0.5]];portConstraint=eastwest;" vertex="1" parent="_9UMwctYBuRy0yYtkL8m-0">
          <mxGeometry y="26" width="290" height="26" as="geometry" />
        </mxCell>
        <mxCell id="_9UMwctYBuRy0yYtkL8m-2" value="+ DefineFunction(name, left, operation, right): void" style="text;align=left;verticalAlign=top;spacingLeft=4;spacingRight=4;overflow=hidden;rotatable=0;points=[[0,0.5],[1,0.5]];portConstraint=eastwest;rounded=0;shadow=0;html=0;" vertex="1" parent="_9UMwctYBuRy0yYtkL8m-0">
          <mxGeometry y="52" width="290" height="26" as="geometry" />
        </mxCell>
        <mxCell id="_9UMwctYBuRy0yYtkL8m-3" value="+ ChangeVarValue(varName, value): void" style="text;align=left;verticalAlign=top;spacingLeft=4;spacingRight=4;overflow=hidden;rotatable=0;points=[[0,0.5],[1,0.5]];portConstraint=eastwest;rounded=0;shadow=0;html=0;" vertex="1" parent="_9UMwctYBuRy0yYtkL8m-0">
          <mxGeometry y="78" width="290" height="26" as="geometry" />
        </mxCell>
        <mxCell id="_9UMwctYBuRy0yYtkL8m-38" value="+ GetVars(): VarsMap const" style="text;align=left;verticalAlign=top;spacingLeft=4;spacingRight=4;overflow=hidden;rotatable=0;points=[[0,0.5],[1,0.5]];portConstraint=eastwest;rounded=0;shadow=0;html=0;" vertex="1" parent="_9UMwctYBuRy0yYtkL8m-0">
          <mxGeometry y="104" width="290" height="26" as="geometry" />
        </mxCell>
        <mxCell id="_9UMwctYBuRy0yYtkL8m-39" value="+ GetFunctions(): vector&lt;Function&gt; const" style="text;align=left;verticalAlign=top;spacingLeft=4;spacingRight=4;overflow=hidden;rotatable=0;points=[[0,0.5],[1,0.5]];portConstraint=eastwest;rounded=0;shadow=0;html=0;" vertex="1" parent="_9UMwctYBuRy0yYtkL8m-0">
          <mxGeometry y="130" width="290" height="26" as="geometry" />
        </mxCell>
        <mxCell id="_9UMwctYBuRy0yYtkL8m-40" value="+ FindVar(name): OptionalVar const" style="text;align=left;verticalAlign=top;spacingLeft=4;spacingRight=4;overflow=hidden;rotatable=0;points=[[0,0.5],[1,0.5]];portConstraint=eastwest;rounded=0;shadow=0;html=0;" vertex="1" parent="_9UMwctYBuRy0yYtkL8m-0">
          <mxGeometry y="156" width="290" height="26" as="geometry" />
        </mxCell>
        <mxCell id="_9UMwctYBuRy0yYtkL8m-41" value="+ FindFunction(name): OptionalFunction const" style="text;align=left;verticalAlign=top;spacingLeft=4;spacingRight=4;overflow=hidden;rotatable=0;points=[[0,0.5],[1,0.5]];portConstraint=eastwest;rounded=0;shadow=0;html=0;" vertex="1" parent="_9UMwctYBuRy0yYtkL8m-0">
          <mxGeometry y="182" width="290" height="26" as="geometry" />
        </mxCell>
        <mxCell id="_9UMwctYBuRy0yYtkL8m-4" value="" style="line;html=1;strokeWidth=1;align=left;verticalAlign=middle;spacingTop=-1;spacingLeft=3;spacingRight=3;rotatable=0;labelPosition=right;points=[];portConstraint=eastwest;" vertex="1" parent="_9UMwctYBuRy0yYtkL8m-0">
          <mxGeometry y="208" width="290" height="8" as="geometry" />
        </mxCell>
        <mxCell id="_9UMwctYBuRy0yYtkL8m-5" value="m_memory: Memory" style="text;align=left;verticalAlign=top;spacingLeft=4;spacingRight=4;overflow=hidden;rotatable=0;points=[[0,0.5],[1,0.5]];portConstraint=eastwest;" vertex="1" parent="_9UMwctYBuRy0yYtkL8m-0">
          <mxGeometry y="216" width="290" height="26" as="geometry" />
        </mxCell>
        <mxCell id="_9UMwctYBuRy0yYtkL8m-12" value="CommandHandler" style="swimlane;fontStyle=2;align=center;verticalAlign=top;childLayout=stackLayout;horizontal=1;startSize=26;horizontalStack=0;resizeParent=1;resizeLast=0;collapsible=1;marginBottom=0;rounded=0;shadow=0;strokeWidth=1;" vertex="1" parent="WIyWlLk6GJQsqaUBKTNV-1">
          <mxGeometry x="145" y="110" width="160" height="295" as="geometry">
            <mxRectangle x="230" y="140" width="160" height="26" as="alternateBounds" />
          </mxGeometry>
        </mxCell>
        <mxCell id="_9UMwctYBuRy0yYtkL8m-13" value="+ HandleCommand()        " style="text;align=left;verticalAlign=top;spacingLeft=4;spacingRight=4;overflow=hidden;rotatable=0;points=[[0,0.5],[1,0.5]];portConstraint=eastwest;" vertex="1" parent="_9UMwctYBuRy0yYtkL8m-12">
          <mxGeometry y="26" width="160" height="27" as="geometry" />
        </mxCell>
        <mxCell id="_9UMwctYBuRy0yYtkL8m-16" value="" style="line;html=1;strokeWidth=1;align=left;verticalAlign=middle;spacingTop=-1;spacingLeft=3;spacingRight=3;rotatable=0;labelPosition=right;points=[];portConstraint=eastwest;" vertex="1" parent="_9UMwctYBuRy0yYtkL8m-12">
          <mxGeometry y="53" width="160" height="8" as="geometry" />
        </mxCell>
        <mxCell id="_9UMwctYBuRy0yYtkL8m-17" value="- PrintVars(): void" style="text;align=left;verticalAlign=top;spacingLeft=4;spacingRight=4;overflow=hidden;rotatable=0;points=[[0,0.5],[1,0.5]];portConstraint=eastwest;" vertex="1" parent="_9UMwctYBuRy0yYtkL8m-12">
          <mxGeometry y="61" width="160" height="26" as="geometry" />
        </mxCell>
        <mxCell id="_9UMwctYBuRy0yYtkL8m-30" value="- PrintFns(): void        " style="text;align=left;verticalAlign=top;spacingLeft=4;spacingRight=4;overflow=hidden;rotatable=0;points=[[0,0.5],[1,0.5]];portConstraint=eastwest;" vertex="1" parent="_9UMwctYBuRy0yYtkL8m-12">
          <mxGeometry y="87" width="160" height="26" as="geometry" />
        </mxCell>
        <mxCell id="_9UMwctYBuRy0yYtkL8m-31" value="- DefineVar(): void" style="text;align=left;verticalAlign=top;spacingLeft=4;spacingRight=4;overflow=hidden;rotatable=0;points=[[0,0.5],[1,0.5]];portConstraint=eastwest;" vertex="1" parent="_9UMwctYBuRy0yYtkL8m-12">
          <mxGeometry y="113" width="160" height="26" as="geometry" />
        </mxCell>
        <mxCell id="_9UMwctYBuRy0yYtkL8m-37" value="- DefineFn(): void" style="text;align=left;verticalAlign=top;spacingLeft=4;spacingRight=4;overflow=hidden;rotatable=0;points=[[0,0.5],[1,0.5]];portConstraint=eastwest;" vertex="1" parent="_9UMwctYBuRy0yYtkL8m-12">
          <mxGeometry y="139" width="160" height="26" as="geometry" />
        </mxCell>
        <mxCell id="_9UMwctYBuRy0yYtkL8m-36" value="- LetVar(): void" style="text;align=left;verticalAlign=top;spacingLeft=4;spacingRight=4;overflow=hidden;rotatable=0;points=[[0,0.5],[1,0.5]];portConstraint=eastwest;" vertex="1" parent="_9UMwctYBuRy0yYtkL8m-12">
          <mxGeometry y="165" width="160" height="26" as="geometry" />
        </mxCell>
        <mxCell id="_9UMwctYBuRy0yYtkL8m-35" value="- Print(): void" style="text;align=left;verticalAlign=top;spacingLeft=4;spacingRight=4;overflow=hidden;rotatable=0;points=[[0,0.5],[1,0.5]];portConstraint=eastwest;" vertex="1" parent="_9UMwctYBuRy0yYtkL8m-12">
          <mxGeometry y="191" width="160" height="26" as="geometry" />
        </mxCell>
        <mxCell id="_9UMwctYBuRy0yYtkL8m-34" value="m_calc: Calculator&amp;" style="text;align=left;verticalAlign=top;spacingLeft=4;spacingRight=4;overflow=hidden;rotatable=0;points=[[0,0.5],[1,0.5]];portConstraint=eastwest;" vertex="1" parent="_9UMwctYBuRy0yYtkL8m-12">
          <mxGeometry y="217" width="160" height="26" as="geometry" />
        </mxCell>
        <mxCell id="_9UMwctYBuRy0yYtkL8m-33" value="input: istream&amp;" style="text;align=left;verticalAlign=top;spacingLeft=4;spacingRight=4;overflow=hidden;rotatable=0;points=[[0,0.5],[1,0.5]];portConstraint=eastwest;" vertex="1" parent="_9UMwctYBuRy0yYtkL8m-12">
          <mxGeometry y="243" width="160" height="26" as="geometry" />
        </mxCell>
        <mxCell id="_9UMwctYBuRy0yYtkL8m-32" value="output: ostream&amp;" style="text;align=left;verticalAlign=top;spacingLeft=4;spacingRight=4;overflow=hidden;rotatable=0;points=[[0,0.5],[1,0.5]];portConstraint=eastwest;" vertex="1" parent="_9UMwctYBuRy0yYtkL8m-12">
          <mxGeometry y="269" width="160" height="26" as="geometry" />
        </mxCell>
        <mxCell id="_9UMwctYBuRy0yYtkL8m-97" style="edgeStyle=orthogonalEdgeStyle;rounded=0;orthogonalLoop=1;jettySize=auto;html=1;entryX=1;entryY=0.5;entryDx=0;entryDy=0;strokeColor=default;align=center;verticalAlign=middle;fontFamily=Helvetica;fontSize=11;fontColor=default;labelBackgroundColor=default;endArrow=diamondThin;endFill=1;endSize=30;" edge="1" parent="WIyWlLk6GJQsqaUBKTNV-1" source="_9UMwctYBuRy0yYtkL8m-61" target="_9UMwctYBuRy0yYtkL8m-94">
          <mxGeometry relative="1" as="geometry" />
        </mxCell>
        <mxCell id="_9UMwctYBuRy0yYtkL8m-61" value="Function" style="swimlane;fontStyle=2;align=center;verticalAlign=top;childLayout=stackLayout;horizontal=1;startSize=26;horizontalStack=0;resizeParent=1;resizeLast=0;collapsible=1;marginBottom=0;rounded=0;shadow=0;strokeWidth=1;" vertex="1" parent="WIyWlLk6GJQsqaUBKTNV-1">
          <mxGeometry x="-100" y="700" width="260" height="164" as="geometry">
            <mxRectangle x="230" y="140" width="160" height="26" as="alternateBounds" />
          </mxGeometry>
        </mxCell>
        <mxCell id="_9UMwctYBuRy0yYtkL8m-62" value="Function(left, operation, right)" style="text;align=left;verticalAlign=top;spacingLeft=4;spacingRight=4;overflow=hidden;rotatable=0;points=[[0,0.5],[1,0.5]];portConstraint=eastwest;" vertex="1" parent="_9UMwctYBuRy0yYtkL8m-61">
          <mxGeometry y="26" width="260" height="26" as="geometry" />
        </mxCell>
        <mxCell id="_9UMwctYBuRy0yYtkL8m-64" value="GetValue(): double&#xa;" style="text;align=left;verticalAlign=top;spacingLeft=4;spacingRight=4;overflow=hidden;rotatable=0;points=[[0,0.5],[1,0.5]];portConstraint=eastwest;rounded=0;shadow=0;html=0;" vertex="1" parent="_9UMwctYBuRy0yYtkL8m-61">
          <mxGeometry y="52" width="260" height="26" as="geometry" />
        </mxCell>
        <mxCell id="_9UMwctYBuRy0yYtkL8m-65" value="" style="line;html=1;strokeWidth=1;align=left;verticalAlign=middle;spacingTop=-1;spacingLeft=3;spacingRight=3;rotatable=0;labelPosition=right;points=[];portConstraint=eastwest;" vertex="1" parent="_9UMwctYBuRy0yYtkL8m-61">
          <mxGeometry y="78" width="260" height="8" as="geometry" />
        </mxCell>
        <mxCell id="_9UMwctYBuRy0yYtkL8m-77" value="m_value: optional&lt;double&gt;" style="text;align=left;verticalAlign=top;spacingLeft=4;spacingRight=4;overflow=hidden;rotatable=0;points=[[0,0.5],[1,0.5]];portConstraint=eastwest;rounded=0;shadow=0;html=0;" vertex="1" parent="_9UMwctYBuRy0yYtkL8m-61">
          <mxGeometry y="86" width="260" height="26" as="geometry" />
        </mxCell>
        <mxCell id="_9UMwctYBuRy0yYtkL8m-107" value="m_deps: set&lt;shared_ptr&lt;IObservable&gt;&gt;" style="text;align=left;verticalAlign=top;spacingLeft=4;spacingRight=4;overflow=hidden;rotatable=0;points=[[0,0.5],[1,0.5]];portConstraint=eastwest;rounded=0;shadow=0;html=0;" vertex="1" parent="_9UMwctYBuRy0yYtkL8m-61">
          <mxGeometry y="112" width="260" height="26" as="geometry" />
        </mxCell>
        <mxCell id="_9UMwctYBuRy0yYtkL8m-112" value="m_valueHandler: shared_ptr&lt;IValueHandler&gt;" style="text;align=left;verticalAlign=top;spacingLeft=4;spacingRight=4;overflow=hidden;rotatable=0;points=[[0,0.5],[1,0.5]];portConstraint=eastwest;rounded=0;shadow=0;html=0;" vertex="1" parent="_9UMwctYBuRy0yYtkL8m-61">
          <mxGeometry y="138" width="260" height="26" as="geometry" />
        </mxCell>
        <mxCell id="_9UMwctYBuRy0yYtkL8m-67" value="Memory" style="swimlane;fontStyle=2;align=center;verticalAlign=top;childLayout=stackLayout;horizontal=1;startSize=26;horizontalStack=0;resizeParent=1;resizeLast=0;collapsible=1;marginBottom=0;rounded=0;shadow=0;strokeWidth=1;" vertex="1" parent="WIyWlLk6GJQsqaUBKTNV-1">
          <mxGeometry x="-270" y="430" width="250" height="242" as="geometry">
            <mxRectangle x="230" y="140" width="160" height="26" as="alternateBounds" />
          </mxGeometry>
        </mxCell>
        <mxCell id="_9UMwctYBuRy0yYtkL8m-68" value="AddVar(name): void" style="text;align=left;verticalAlign=top;spacingLeft=4;spacingRight=4;overflow=hidden;rotatable=0;points=[[0,0.5],[1,0.5]];portConstraint=eastwest;" vertex="1" parent="_9UMwctYBuRy0yYtkL8m-67">
          <mxGeometry y="26" width="250" height="26" as="geometry" />
        </mxCell>
        <mxCell id="_9UMwctYBuRy0yYtkL8m-69" value="ChangeVarValue(name, value): void" style="text;align=left;verticalAlign=top;spacingLeft=4;spacingRight=4;overflow=hidden;rotatable=0;points=[[0,0.5],[1,0.5]];portConstraint=eastwest;rounded=0;shadow=0;html=0;" vertex="1" parent="_9UMwctYBuRy0yYtkL8m-67">
          <mxGeometry y="52" width="250" height="26" as="geometry" />
        </mxCell>
        <mxCell id="_9UMwctYBuRy0yYtkL8m-70" value="FindVar(name): OptionalVar const" style="text;align=left;verticalAlign=top;spacingLeft=4;spacingRight=4;overflow=hidden;rotatable=0;points=[[0,0.5],[1,0.5]];portConstraint=eastwest;rounded=0;shadow=0;html=0;" vertex="1" parent="_9UMwctYBuRy0yYtkL8m-67">
          <mxGeometry y="78" width="250" height="26" as="geometry" />
        </mxCell>
        <mxCell id="_9UMwctYBuRy0yYtkL8m-73" value="GetVars(): VarsMap const" style="text;align=left;verticalAlign=top;spacingLeft=4;spacingRight=4;overflow=hidden;rotatable=0;points=[[0,0.5],[1,0.5]];portConstraint=eastwest;rounded=0;shadow=0;html=0;" vertex="1" parent="_9UMwctYBuRy0yYtkL8m-67">
          <mxGeometry y="104" width="250" height="26" as="geometry" />
        </mxCell>
        <mxCell id="_9UMwctYBuRy0yYtkL8m-129" value="FindFunction(name) const: OptionalFunction " style="text;align=left;verticalAlign=top;spacingLeft=4;spacingRight=4;overflow=hidden;rotatable=0;points=[[0,0.5],[1,0.5]];portConstraint=eastwest;rounded=0;shadow=0;html=0;" vertex="1" parent="_9UMwctYBuRy0yYtkL8m-67">
          <mxGeometry y="130" width="250" height="26" as="geometry" />
        </mxCell>
        <mxCell id="_9UMwctYBuRy0yYtkL8m-128" style="text;align=left;verticalAlign=top;spacingLeft=4;spacingRight=4;overflow=hidden;rotatable=0;points=[[0,0.5],[1,0.5]];portConstraint=eastwest;rounded=0;shadow=0;html=0;" vertex="1" parent="_9UMwctYBuRy0yYtkL8m-67">
          <mxGeometry y="156" width="250" height="26" as="geometry" />
        </mxCell>
        <mxCell id="_9UMwctYBuRy0yYtkL8m-71" value="" style="line;html=1;strokeWidth=1;align=left;verticalAlign=middle;spacingTop=-1;spacingLeft=3;spacingRight=3;rotatable=0;labelPosition=right;points=[];portConstraint=eastwest;" vertex="1" parent="_9UMwctYBuRy0yYtkL8m-67">
          <mxGeometry y="182" width="250" height="8" as="geometry" />
        </mxCell>
        <mxCell id="_9UMwctYBuRy0yYtkL8m-72" value="m_vars: VarsMap" style="text;align=left;verticalAlign=top;spacingLeft=4;spacingRight=4;overflow=hidden;rotatable=0;points=[[0,0.5],[1,0.5]];portConstraint=eastwest;" vertex="1" parent="_9UMwctYBuRy0yYtkL8m-67">
          <mxGeometry y="190" width="250" height="26" as="geometry" />
        </mxCell>
        <mxCell id="_9UMwctYBuRy0yYtkL8m-94" value="m_functions: FunctionsMap" style="text;align=left;verticalAlign=top;spacingLeft=4;spacingRight=4;overflow=hidden;rotatable=0;points=[[0,0.5],[1,0.5]];portConstraint=eastwest;" vertex="1" parent="_9UMwctYBuRy0yYtkL8m-67">
          <mxGeometry y="216" width="250" height="26" as="geometry" />
        </mxCell>
        <mxCell id="_9UMwctYBuRy0yYtkL8m-78" value="Var" style="swimlane;fontStyle=2;align=center;verticalAlign=top;childLayout=stackLayout;horizontal=1;startSize=26;horizontalStack=0;resizeParent=1;resizeLast=0;collapsible=1;marginBottom=0;rounded=0;shadow=0;strokeWidth=1;" vertex="1" parent="WIyWlLk6GJQsqaUBKTNV-1">
          <mxGeometry x="-470" y="690" width="220" height="250" as="geometry">
            <mxRectangle x="230" y="140" width="160" height="26" as="alternateBounds" />
          </mxGeometry>
        </mxCell>
        <mxCell id="_9UMwctYBuRy0yYtkL8m-79" value="Var(value)" style="text;align=left;verticalAlign=top;spacingLeft=4;spacingRight=4;overflow=hidden;rotatable=0;points=[[0,0.5],[1,0.5]];portConstraint=eastwest;" vertex="1" parent="_9UMwctYBuRy0yYtkL8m-78">
          <mxGeometry y="26" width="220" height="26" as="geometry" />
        </mxCell>
        <mxCell id="_9UMwctYBuRy0yYtkL8m-80" value="GetValue() const" style="text;align=left;verticalAlign=top;spacingLeft=4;spacingRight=4;overflow=hidden;rotatable=0;points=[[0,0.5],[1,0.5]];portConstraint=eastwest;rounded=0;shadow=0;html=0;" vertex="1" parent="_9UMwctYBuRy0yYtkL8m-78">
          <mxGeometry y="52" width="220" height="26" as="geometry" />
        </mxCell>
        <mxCell id="_9UMwctYBuRy0yYtkL8m-83" value="SetValue() const" style="text;align=left;verticalAlign=top;spacingLeft=4;spacingRight=4;overflow=hidden;rotatable=0;points=[[0,0.5],[1,0.5]];portConstraint=eastwest;rounded=0;shadow=0;html=0;" vertex="1" parent="_9UMwctYBuRy0yYtkL8m-78">
          <mxGeometry y="78" width="220" height="26" as="geometry" />
        </mxCell>
        <mxCell id="_9UMwctYBuRy0yYtkL8m-118" value="RegisterObserver(observer&amp;): void" style="text;align=left;verticalAlign=top;spacingLeft=4;spacingRight=4;overflow=hidden;rotatable=0;points=[[0,0.5],[1,0.5]];portConstraint=eastwest;rounded=0;shadow=0;html=0;" vertex="1" parent="_9UMwctYBuRy0yYtkL8m-78">
          <mxGeometry y="104" width="220" height="26" as="geometry" />
        </mxCell>
        <mxCell id="_9UMwctYBuRy0yYtkL8m-122" value="RemoveObserver(observer&amp;): void" style="text;align=left;verticalAlign=top;spacingLeft=4;spacingRight=4;overflow=hidden;rotatable=0;points=[[0,0.5],[1,0.5]];portConstraint=eastwest;rounded=0;shadow=0;html=0;" vertex="1" parent="_9UMwctYBuRy0yYtkL8m-78">
          <mxGeometry y="130" width="220" height="26" as="geometry" />
        </mxCell>
        <mxCell id="_9UMwctYBuRy0yYtkL8m-125" value="" style="line;html=1;strokeWidth=1;align=left;verticalAlign=middle;spacingTop=-1;spacingLeft=3;spacingRight=3;rotatable=0;labelPosition=right;points=[];portConstraint=eastwest;" vertex="1" parent="_9UMwctYBuRy0yYtkL8m-78">
          <mxGeometry y="156" width="220" height="8" as="geometry" />
        </mxCell>
        <mxCell id="_9UMwctYBuRy0yYtkL8m-121" value="NotifyObservers(): void const" style="text;align=left;verticalAlign=top;spacingLeft=4;spacingRight=4;overflow=hidden;rotatable=0;points=[[0,0.5],[1,0.5]];portConstraint=eastwest;rounded=0;shadow=0;html=0;" vertex="1" parent="_9UMwctYBuRy0yYtkL8m-78">
          <mxGeometry y="164" width="220" height="26" as="geometry" />
        </mxCell>
        <mxCell id="_9UMwctYBuRy0yYtkL8m-81" value="" style="line;html=1;strokeWidth=1;align=left;verticalAlign=middle;spacingTop=-1;spacingLeft=3;spacingRight=3;rotatable=0;labelPosition=right;points=[];portConstraint=eastwest;" vertex="1" parent="_9UMwctYBuRy0yYtkL8m-78">
          <mxGeometry y="190" width="220" height="8" as="geometry" />
        </mxCell>
        <mxCell id="_9UMwctYBuRy0yYtkL8m-82" value="m_value: double" style="text;align=left;verticalAlign=top;spacingLeft=4;spacingRight=4;overflow=hidden;rotatable=0;points=[[0,0.5],[1,0.5]];portConstraint=eastwest;rounded=0;shadow=0;html=0;" vertex="1" parent="_9UMwctYBuRy0yYtkL8m-78">
          <mxGeometry y="198" width="220" height="26" as="geometry" />
        </mxCell>
        <mxCell id="_9UMwctYBuRy0yYtkL8m-123" value="m_observers: set&lt;Observer&gt;" style="text;align=left;verticalAlign=top;spacingLeft=4;spacingRight=4;overflow=hidden;rotatable=0;points=[[0,0.5],[1,0.5]];portConstraint=eastwest;rounded=0;shadow=0;html=0;" vertex="1" parent="_9UMwctYBuRy0yYtkL8m-78">
          <mxGeometry y="224" width="220" height="26" as="geometry" />
        </mxCell>
        <mxCell id="_9UMwctYBuRy0yYtkL8m-84" value="ValueHandler" style="swimlane;fontStyle=2;align=center;verticalAlign=top;childLayout=stackLayout;horizontal=1;startSize=26;horizontalStack=0;resizeParent=1;resizeLast=0;collapsible=1;marginBottom=0;rounded=0;shadow=0;strokeWidth=1;" vertex="1" parent="WIyWlLk6GJQsqaUBKTNV-1">
          <mxGeometry x="130" y="480" width="230" height="90" as="geometry">
            <mxRectangle x="230" y="140" width="160" height="26" as="alternateBounds" />
          </mxGeometry>
        </mxCell>
        <mxCell id="_9UMwctYBuRy0yYtkL8m-86" value="GetValue(name): double&#xa;" style="text;align=left;verticalAlign=top;spacingLeft=4;spacingRight=4;overflow=hidden;rotatable=0;points=[[0,0.5],[1,0.5]];portConstraint=eastwest;rounded=0;shadow=0;html=0;" vertex="1" parent="_9UMwctYBuRy0yYtkL8m-84">
          <mxGeometry y="26" width="230" height="26" as="geometry" />
        </mxCell>
        <mxCell id="_9UMwctYBuRy0yYtkL8m-87" value="" style="line;html=1;strokeWidth=1;align=left;verticalAlign=middle;spacingTop=-1;spacingLeft=3;spacingRight=3;rotatable=0;labelPosition=right;points=[];portConstraint=eastwest;" vertex="1" parent="_9UMwctYBuRy0yYtkL8m-84">
          <mxGeometry y="52" width="230" height="8" as="geometry" />
        </mxCell>
        <mxCell id="_9UMwctYBuRy0yYtkL8m-88" value="m_memory: std::unique_ptr&lt;Memory&gt;" style="text;align=left;verticalAlign=top;spacingLeft=4;spacingRight=4;overflow=hidden;rotatable=0;points=[[0,0.5],[1,0.5]];portConstraint=eastwest;rounded=0;shadow=0;html=0;" vertex="1" parent="_9UMwctYBuRy0yYtkL8m-84">
          <mxGeometry y="60" width="230" height="26" as="geometry" />
        </mxCell>
        <mxCell id="_9UMwctYBuRy0yYtkL8m-89" style="edgeStyle=orthogonalEdgeStyle;rounded=0;orthogonalLoop=1;jettySize=auto;html=1;entryX=0;entryY=0.5;entryDx=0;entryDy=0;endArrow=diamondThin;endFill=0;jumpSize=13;endSize=30;" edge="1" parent="WIyWlLk6GJQsqaUBKTNV-1" source="_9UMwctYBuRy0yYtkL8m-39" target="_9UMwctYBuRy0yYtkL8m-34">
          <mxGeometry relative="1" as="geometry" />
        </mxCell>
        <mxCell id="_9UMwctYBuRy0yYtkL8m-95" style="edgeStyle=orthogonalEdgeStyle;rounded=0;orthogonalLoop=1;jettySize=auto;html=1;entryX=0.381;entryY=0.974;entryDx=0;entryDy=0;entryPerimeter=0;endArrow=diamondThin;endFill=1;endSize=30;" edge="1" parent="WIyWlLk6GJQsqaUBKTNV-1">
          <mxGeometry relative="1" as="geometry">
            <mxPoint x="-160" y="430" as="sourcePoint" />
            <mxPoint x="-159.7600000000001" y="342.00399999999996" as="targetPoint" />
            <Array as="points">
              <mxPoint x="-160.25" y="390.68" />
              <mxPoint x="-159.25" y="390.68" />
            </Array>
          </mxGeometry>
        </mxCell>
        <mxCell id="_9UMwctYBuRy0yYtkL8m-96" style="edgeStyle=orthogonalEdgeStyle;rounded=0;orthogonalLoop=1;jettySize=auto;html=1;entryX=0;entryY=0.5;entryDx=0;entryDy=0;exitX=0.5;exitY=0;exitDx=0;exitDy=0;endArrow=diamondThin;endFill=1;endSize=30;" edge="1" parent="WIyWlLk6GJQsqaUBKTNV-1" source="_9UMwctYBuRy0yYtkL8m-78" target="_9UMwctYBuRy0yYtkL8m-72">
          <mxGeometry relative="1" as="geometry" />
        </mxCell>
        <mxCell id="_9UMwctYBuRy0yYtkL8m-110" style="edgeStyle=orthogonalEdgeStyle;rounded=0;orthogonalLoop=1;jettySize=auto;html=1;strokeColor=default;align=center;verticalAlign=middle;fontFamily=Helvetica;fontSize=11;fontColor=default;labelBackgroundColor=default;endArrow=diamondThin;endFill=0;endSize=30;" edge="1" parent="WIyWlLk6GJQsqaUBKTNV-1" source="_9UMwctYBuRy0yYtkL8m-98">
          <mxGeometry relative="1" as="geometry">
            <mxPoint x="-100" y="810" as="targetPoint" />
            <Array as="points">
              <mxPoint x="-160" y="810" />
              <mxPoint x="-100" y="810" />
            </Array>
          </mxGeometry>
        </mxCell>
        <mxCell id="_9UMwctYBuRy0yYtkL8m-98" value="IObservable" style="swimlane;fontStyle=2;align=center;verticalAlign=top;childLayout=stackLayout;horizontal=1;startSize=26;horizontalStack=0;resizeParent=1;resizeLast=0;collapsible=1;marginBottom=0;rounded=0;shadow=0;strokeWidth=1;" vertex="1" parent="WIyWlLk6GJQsqaUBKTNV-1">
          <mxGeometry x="-210" y="940" width="230" height="110" as="geometry">
            <mxRectangle x="230" y="140" width="160" height="26" as="alternateBounds" />
          </mxGeometry>
        </mxCell>
        <mxCell id="_9UMwctYBuRy0yYtkL8m-99" value="RegisterObserver(observer&amp;)" style="text;align=left;verticalAlign=top;spacingLeft=4;spacingRight=4;overflow=hidden;rotatable=0;points=[[0,0.5],[1,0.5]];portConstraint=eastwest;rounded=0;shadow=0;html=0;" vertex="1" parent="_9UMwctYBuRy0yYtkL8m-98">
          <mxGeometry y="26" width="230" height="26" as="geometry" />
        </mxCell>
        <mxCell id="_9UMwctYBuRy0yYtkL8m-102" value="NotifyObservers()" style="text;align=left;verticalAlign=top;spacingLeft=4;spacingRight=4;overflow=hidden;rotatable=0;points=[[0,0.5],[1,0.5]];portConstraint=eastwest;rounded=0;shadow=0;html=0;" vertex="1" parent="_9UMwctYBuRy0yYtkL8m-98">
          <mxGeometry y="52" width="230" height="26" as="geometry" />
        </mxCell>
        <mxCell id="_9UMwctYBuRy0yYtkL8m-103" value="RemoveObserver(observer&amp;)" style="text;align=left;verticalAlign=top;spacingLeft=4;spacingRight=4;overflow=hidden;rotatable=0;points=[[0,0.5],[1,0.5]];portConstraint=eastwest;rounded=0;shadow=0;html=0;" vertex="1" parent="_9UMwctYBuRy0yYtkL8m-98">
          <mxGeometry y="78" width="230" height="26" as="geometry" />
        </mxCell>
        <mxCell id="_9UMwctYBuRy0yYtkL8m-105" style="edgeStyle=orthogonalEdgeStyle;rounded=0;orthogonalLoop=1;jettySize=auto;html=1;entryX=0;entryY=0.5;entryDx=0;entryDy=0;strokeColor=default;align=center;verticalAlign=middle;fontFamily=Helvetica;fontSize=11;fontColor=default;labelBackgroundColor=default;endArrow=block;endFill=0;endSize=30;dashed=1;exitX=0.557;exitY=0.981;exitDx=0;exitDy=0;exitPerimeter=0;dashPattern=8 8;" edge="1" parent="WIyWlLk6GJQsqaUBKTNV-1" source="_9UMwctYBuRy0yYtkL8m-123" target="_9UMwctYBuRy0yYtkL8m-102">
          <mxGeometry relative="1" as="geometry">
            <mxPoint x="-310" y="880" as="sourcePoint" />
            <Array as="points">
              <mxPoint x="-348" y="960" />
              <mxPoint x="-350" y="960" />
              <mxPoint x="-350" y="1005" />
            </Array>
          </mxGeometry>
        </mxCell>
        <mxCell id="_9UMwctYBuRy0yYtkL8m-113" style="edgeStyle=orthogonalEdgeStyle;rounded=0;orthogonalLoop=1;jettySize=auto;html=1;strokeColor=default;align=center;verticalAlign=middle;fontFamily=Helvetica;fontSize=11;fontColor=default;labelBackgroundColor=default;endArrow=diamondThin;endFill=0;endSize=30;exitX=0;exitY=0.5;exitDx=0;exitDy=0;" edge="1" parent="WIyWlLk6GJQsqaUBKTNV-1" source="_9UMwctYBuRy0yYtkL8m-115" target="_9UMwctYBuRy0yYtkL8m-112">
          <mxGeometry relative="1" as="geometry" />
        </mxCell>
        <mxCell id="_9UMwctYBuRy0yYtkL8m-93" style="edgeStyle=orthogonalEdgeStyle;rounded=0;orthogonalLoop=1;jettySize=auto;html=1;endArrow=diamondThin;endFill=0;endSize=30;exitX=1.004;exitY=0.681;exitDx=0;exitDy=0;exitPerimeter=0;entryX=0;entryY=0.5;entryDx=0;entryDy=0;" edge="1" parent="WIyWlLk6GJQsqaUBKTNV-1" source="_9UMwctYBuRy0yYtkL8m-69" target="_9UMwctYBuRy0yYtkL8m-88">
          <mxGeometry relative="1" as="geometry" />
        </mxCell>
        <mxCell id="_9UMwctYBuRy0yYtkL8m-114" value="IValueHandler" style="swimlane;fontStyle=2;align=center;verticalAlign=top;childLayout=stackLayout;horizontal=1;startSize=26;horizontalStack=0;resizeParent=1;resizeLast=0;collapsible=1;marginBottom=0;rounded=0;shadow=0;strokeWidth=1;" vertex="1" parent="WIyWlLk6GJQsqaUBKTNV-1">
          <mxGeometry x="240" y="700" width="230" height="60" as="geometry">
            <mxRectangle x="230" y="140" width="160" height="26" as="alternateBounds" />
          </mxGeometry>
        </mxCell>
        <mxCell id="_9UMwctYBuRy0yYtkL8m-115" value="GetValue(name): double&#xa;" style="text;align=left;verticalAlign=top;spacingLeft=4;spacingRight=4;overflow=hidden;rotatable=0;points=[[0,0.5],[1,0.5]];portConstraint=eastwest;rounded=0;shadow=0;html=0;" vertex="1" parent="_9UMwctYBuRy0yYtkL8m-114">
          <mxGeometry y="26" width="230" height="24" as="geometry" />
        </mxCell>
        <mxCell id="_9UMwctYBuRy0yYtkL8m-124" style="edgeStyle=orthogonalEdgeStyle;rounded=0;orthogonalLoop=1;jettySize=auto;html=1;entryX=0.352;entryY=0.031;entryDx=0;entryDy=0;entryPerimeter=0;strokeColor=default;align=center;verticalAlign=middle;fontFamily=Helvetica;fontSize=11;fontColor=default;labelBackgroundColor=default;endArrow=block;endFill=0;endSize=30;dashed=1;dashPattern=8 8;" edge="1" parent="WIyWlLk6GJQsqaUBKTNV-1" source="_9UMwctYBuRy0yYtkL8m-84" target="_9UMwctYBuRy0yYtkL8m-114">
          <mxGeometry relative="1" as="geometry" />
        </mxCell>
      </root>
    </mxGraphModel>
  </diagram>
</mxfile>
